<mxfile host="app.diagrams.net" modified="2023-07-11T07:27:11.403Z" agent="Mozilla/5.0 (Windows NT 10.0; Win64; x64) AppleWebKit/537.36 (KHTML, like Gecko) Chrome/114.0.0.0 Safari/537.36 Edg/114.0.1823.67" etag="jkV_anTb7I6hvdYhN3ny" version="21.6.1" type="device">
  <diagram id="C5RBs43oDa-KdzZeNtuy" name="Page-1">
    <mxGraphModel dx="266" dy="757" grid="1" gridSize="10" guides="1" tooltips="1" connect="1" arrows="1" fold="1" page="1" pageScale="1" pageWidth="827" pageHeight="1169" math="0" shadow="0">
      <root>
        <mxCell id="WIyWlLk6GJQsqaUBKTNV-0" />
        <mxCell id="WIyWlLk6GJQsqaUBKTNV-1" parent="WIyWlLk6GJQsqaUBKTNV-0" />
        <mxCell id="aL73Mdj266lsGvpXiwKX-4" value="GetToken" style="swimlane;fontStyle=1;align=center;verticalAlign=top;childLayout=stackLayout;horizontal=1;startSize=26;horizontalStack=0;resizeParent=1;resizeParentMax=0;resizeLast=0;collapsible=1;marginBottom=0;whiteSpace=wrap;html=1;" vertex="1" parent="WIyWlLk6GJQsqaUBKTNV-1">
          <mxGeometry x="510" y="280" width="160" height="150" as="geometry" />
        </mxCell>
        <mxCell id="aL73Mdj266lsGvpXiwKX-5" value="_url: string&lt;br&gt;_proxi: map&lt;br&gt;_header: map&lt;br&gt;_json: map" style="text;strokeColor=none;fillColor=none;align=left;verticalAlign=top;spacingLeft=4;spacingRight=4;overflow=hidden;rotatable=0;points=[[0,0.5],[1,0.5]];portConstraint=eastwest;whiteSpace=wrap;html=1;fontStyle=1" vertex="1" parent="aL73Mdj266lsGvpXiwKX-4">
          <mxGeometry y="26" width="160" height="74" as="geometry" />
        </mxCell>
        <mxCell id="aL73Mdj266lsGvpXiwKX-6" value="" style="line;strokeWidth=1;fillColor=none;align=left;verticalAlign=middle;spacingTop=-1;spacingLeft=3;spacingRight=3;rotatable=0;labelPosition=right;points=[];portConstraint=eastwest;strokeColor=inherit;fontStyle=1" vertex="1" parent="aL73Mdj266lsGvpXiwKX-4">
          <mxGeometry y="100" width="160" height="8" as="geometry" />
        </mxCell>
        <mxCell id="aL73Mdj266lsGvpXiwKX-7" value="_Wri(): bool&lt;br&gt;Get(): bool" style="text;strokeColor=none;fillColor=none;align=left;verticalAlign=top;spacingLeft=4;spacingRight=4;overflow=hidden;rotatable=0;points=[[0,0.5],[1,0.5]];portConstraint=eastwest;whiteSpace=wrap;html=1;fontStyle=1" vertex="1" parent="aL73Mdj266lsGvpXiwKX-4">
          <mxGeometry y="108" width="160" height="42" as="geometry" />
        </mxCell>
        <mxCell id="aL73Mdj266lsGvpXiwKX-8" value="json" style="shape=folder;fontStyle=1;spacingTop=10;tabWidth=40;tabHeight=14;tabPosition=left;html=1;whiteSpace=wrap;" vertex="1" parent="WIyWlLk6GJQsqaUBKTNV-1">
          <mxGeometry x="370" y="200" width="70" height="50" as="geometry" />
        </mxCell>
        <mxCell id="aL73Mdj266lsGvpXiwKX-9" value="request" style="shape=folder;fontStyle=1;spacingTop=10;tabWidth=40;tabHeight=14;tabPosition=left;html=1;whiteSpace=wrap;" vertex="1" parent="WIyWlLk6GJQsqaUBKTNV-1">
          <mxGeometry x="270" y="200" width="70" height="50" as="geometry" />
        </mxCell>
        <mxCell id="aL73Mdj266lsGvpXiwKX-10" value="faker" style="shape=folder;fontStyle=1;spacingTop=10;tabWidth=40;tabHeight=14;tabPosition=left;html=1;whiteSpace=wrap;" vertex="1" parent="WIyWlLk6GJQsqaUBKTNV-1">
          <mxGeometry x="470" y="200" width="70" height="50" as="geometry" />
        </mxCell>
        <mxCell id="aL73Mdj266lsGvpXiwKX-11" value="time" style="shape=folder;fontStyle=1;spacingTop=10;tabWidth=40;tabHeight=14;tabPosition=left;html=1;whiteSpace=wrap;" vertex="1" parent="WIyWlLk6GJQsqaUBKTNV-1">
          <mxGeometry x="570" y="200" width="70" height="50" as="geometry" />
        </mxCell>
        <mxCell id="aL73Mdj266lsGvpXiwKX-12" value="GetJson" style="swimlane;fontStyle=1;align=center;verticalAlign=top;childLayout=stackLayout;horizontal=1;startSize=26;horizontalStack=0;resizeParent=1;resizeParentMax=0;resizeLast=0;collapsible=1;marginBottom=0;whiteSpace=wrap;html=1;" vertex="1" parent="WIyWlLk6GJQsqaUBKTNV-1">
          <mxGeometry x="270" y="280" width="160" height="110" as="geometry" />
        </mxCell>
        <mxCell id="aL73Mdj266lsGvpXiwKX-13" value="_tokenWay: string&lt;br&gt;_url: string&lt;br&gt;_json: map&lt;br&gt;_token: list&lt;br&gt;_reJson: map" style="text;strokeColor=none;fillColor=none;align=left;verticalAlign=top;spacingLeft=4;spacingRight=4;overflow=hidden;rotatable=0;points=[[0,0.5],[1,0.5]];portConstraint=eastwest;whiteSpace=wrap;html=1;fontStyle=1" vertex="1" parent="aL73Mdj266lsGvpXiwKX-12">
          <mxGeometry y="26" width="160" height="84" as="geometry" />
        </mxCell>
        <mxCell id="aL73Mdj266lsGvpXiwKX-19" value="_GetToken(): None&lt;br&gt;_Get(): bool&lt;br&gt;Run(): dict" style="text;strokeColor=default;fillColor=none;align=left;verticalAlign=top;spacingLeft=4;spacingRight=4;overflow=hidden;rotatable=0;points=[[0,0.5],[1,0.5]];portConstraint=eastwest;whiteSpace=wrap;html=1;fontStyle=1" vertex="1" parent="WIyWlLk6GJQsqaUBKTNV-1">
          <mxGeometry x="270" y="390" width="160" height="60" as="geometry" />
        </mxCell>
        <mxCell id="aL73Mdj266lsGvpXiwKX-23" style="edgeStyle=orthogonalEdgeStyle;rounded=0;orthogonalLoop=1;jettySize=auto;html=1;exitX=1;exitY=0.5;exitDx=0;exitDy=0;entryX=0.009;entryY=0.608;entryDx=0;entryDy=0;entryPerimeter=0;dashed=1;endArrow=open;endFill=0;" edge="1" parent="WIyWlLk6GJQsqaUBKTNV-1" source="aL73Mdj266lsGvpXiwKX-13" target="aL73Mdj266lsGvpXiwKX-5">
          <mxGeometry relative="1" as="geometry" />
        </mxCell>
        <mxCell id="aL73Mdj266lsGvpXiwKX-35" style="edgeStyle=orthogonalEdgeStyle;rounded=0;orthogonalLoop=1;jettySize=auto;html=1;exitX=0.5;exitY=0;exitDx=0;exitDy=0;entryX=0.172;entryY=1.017;entryDx=0;entryDy=0;entryPerimeter=0;dashed=1;endArrow=open;endFill=0;" edge="1" parent="WIyWlLk6GJQsqaUBKTNV-1" source="aL73Mdj266lsGvpXiwKX-24" target="aL73Mdj266lsGvpXiwKX-19">
          <mxGeometry relative="1" as="geometry" />
        </mxCell>
        <mxCell id="aL73Mdj266lsGvpXiwKX-24" value="GetPlaceList" style="swimlane;fontStyle=1;align=center;verticalAlign=top;childLayout=stackLayout;horizontal=1;startSize=26;horizontalStack=0;resizeParent=1;resizeParentMax=0;resizeLast=0;collapsible=1;marginBottom=0;whiteSpace=wrap;html=1;" vertex="1" parent="WIyWlLk6GJQsqaUBKTNV-1">
          <mxGeometry x="80" y="540" width="160" height="104" as="geometry" />
        </mxCell>
        <mxCell id="aL73Mdj266lsGvpXiwKX-25" value="url: string&lt;br&gt;jsons: map" style="text;strokeColor=none;fillColor=none;align=left;verticalAlign=top;spacingLeft=4;spacingRight=4;overflow=hidden;rotatable=0;points=[[0,0.5],[1,0.5]];portConstraint=eastwest;whiteSpace=wrap;html=1;fontStyle=1" vertex="1" parent="aL73Mdj266lsGvpXiwKX-24">
          <mxGeometry y="26" width="160" height="44" as="geometry" />
        </mxCell>
        <mxCell id="aL73Mdj266lsGvpXiwKX-26" value="" style="line;strokeWidth=1;fillColor=none;align=left;verticalAlign=middle;spacingTop=-1;spacingLeft=3;spacingRight=3;rotatable=0;labelPosition=right;points=[];portConstraint=eastwest;strokeColor=inherit;fontStyle=1" vertex="1" parent="aL73Mdj266lsGvpXiwKX-24">
          <mxGeometry y="70" width="160" height="8" as="geometry" />
        </mxCell>
        <mxCell id="aL73Mdj266lsGvpXiwKX-27" value="Run(): dict" style="text;strokeColor=none;fillColor=none;align=left;verticalAlign=top;spacingLeft=4;spacingRight=4;overflow=hidden;rotatable=0;points=[[0,0.5],[1,0.5]];portConstraint=eastwest;whiteSpace=wrap;html=1;fontStyle=1" vertex="1" parent="aL73Mdj266lsGvpXiwKX-24">
          <mxGeometry y="78" width="160" height="26" as="geometry" />
        </mxCell>
        <mxCell id="aL73Mdj266lsGvpXiwKX-36" style="edgeStyle=orthogonalEdgeStyle;rounded=0;orthogonalLoop=1;jettySize=auto;html=1;exitX=0.5;exitY=0;exitDx=0;exitDy=0;entryX=0.303;entryY=1.017;entryDx=0;entryDy=0;entryPerimeter=0;endArrow=open;endFill=0;dashed=1;" edge="1" parent="WIyWlLk6GJQsqaUBKTNV-1" source="aL73Mdj266lsGvpXiwKX-29" target="aL73Mdj266lsGvpXiwKX-19">
          <mxGeometry relative="1" as="geometry">
            <Array as="points">
              <mxPoint x="380" y="496" />
              <mxPoint x="318" y="496" />
            </Array>
          </mxGeometry>
        </mxCell>
        <mxCell id="aL73Mdj266lsGvpXiwKX-29" value="GetPlaceDetail" style="swimlane;fontStyle=1;align=center;verticalAlign=top;childLayout=stackLayout;horizontal=1;startSize=26;horizontalStack=0;resizeParent=1;resizeParentMax=0;resizeLast=0;collapsible=1;marginBottom=0;whiteSpace=wrap;html=1;" vertex="1" parent="WIyWlLk6GJQsqaUBKTNV-1">
          <mxGeometry x="300" y="542" width="160" height="120" as="geometry" />
        </mxCell>
        <mxCell id="aL73Mdj266lsGvpXiwKX-30" value="url: string&lt;br&gt;jsons: map" style="text;strokeColor=none;fillColor=none;align=left;verticalAlign=top;spacingLeft=4;spacingRight=4;overflow=hidden;rotatable=0;points=[[0,0.5],[1,0.5]];portConstraint=eastwest;whiteSpace=wrap;html=1;fontStyle=1" vertex="1" parent="aL73Mdj266lsGvpXiwKX-29">
          <mxGeometry y="26" width="160" height="44" as="geometry" />
        </mxCell>
        <mxCell id="aL73Mdj266lsGvpXiwKX-31" value="" style="line;strokeWidth=1;fillColor=none;align=left;verticalAlign=middle;spacingTop=-1;spacingLeft=3;spacingRight=3;rotatable=0;labelPosition=right;points=[];portConstraint=eastwest;strokeColor=inherit;fontStyle=1" vertex="1" parent="aL73Mdj266lsGvpXiwKX-29">
          <mxGeometry y="70" width="160" height="8" as="geometry" />
        </mxCell>
        <mxCell id="aL73Mdj266lsGvpXiwKX-32" value="_DealData(): dict&lt;br&gt;Run(): dict" style="text;strokeColor=none;fillColor=none;align=left;verticalAlign=top;spacingLeft=4;spacingRight=4;overflow=hidden;rotatable=0;points=[[0,0.5],[1,0.5]];portConstraint=eastwest;whiteSpace=wrap;html=1;fontStyle=1" vertex="1" parent="aL73Mdj266lsGvpXiwKX-29">
          <mxGeometry y="78" width="160" height="42" as="geometry" />
        </mxCell>
        <mxCell id="aL73Mdj266lsGvpXiwKX-42" style="edgeStyle=orthogonalEdgeStyle;rounded=0;orthogonalLoop=1;jettySize=auto;html=1;exitX=0.5;exitY=0;exitDx=0;exitDy=0;entryX=0.728;entryY=0.983;entryDx=0;entryDy=0;entryPerimeter=0;dashed=1;" edge="1" parent="WIyWlLk6GJQsqaUBKTNV-1" source="aL73Mdj266lsGvpXiwKX-37" target="aL73Mdj266lsGvpXiwKX-19">
          <mxGeometry relative="1" as="geometry" />
        </mxCell>
        <mxCell id="aL73Mdj266lsGvpXiwKX-37" value="GetFloorDetail" style="swimlane;fontStyle=1;align=center;verticalAlign=top;childLayout=stackLayout;horizontal=1;startSize=26;horizontalStack=0;resizeParent=1;resizeParentMax=0;resizeLast=0;collapsible=1;marginBottom=0;whiteSpace=wrap;html=1;" vertex="1" parent="WIyWlLk6GJQsqaUBKTNV-1">
          <mxGeometry x="525" y="542" width="160" height="120" as="geometry" />
        </mxCell>
        <mxCell id="aL73Mdj266lsGvpXiwKX-38" value="url: string&lt;br&gt;jsons: map" style="text;strokeColor=none;fillColor=none;align=left;verticalAlign=top;spacingLeft=4;spacingRight=4;overflow=hidden;rotatable=0;points=[[0,0.5],[1,0.5]];portConstraint=eastwest;whiteSpace=wrap;html=1;fontStyle=1" vertex="1" parent="aL73Mdj266lsGvpXiwKX-37">
          <mxGeometry y="26" width="160" height="44" as="geometry" />
        </mxCell>
        <mxCell id="aL73Mdj266lsGvpXiwKX-39" value="" style="line;strokeWidth=1;fillColor=none;align=left;verticalAlign=middle;spacingTop=-1;spacingLeft=3;spacingRight=3;rotatable=0;labelPosition=right;points=[];portConstraint=eastwest;strokeColor=inherit;fontStyle=1" vertex="1" parent="aL73Mdj266lsGvpXiwKX-37">
          <mxGeometry y="70" width="160" height="8" as="geometry" />
        </mxCell>
        <mxCell id="aL73Mdj266lsGvpXiwKX-40" value="_DealData(): dict&lt;br&gt;Run(): dict" style="text;strokeColor=none;fillColor=none;align=left;verticalAlign=top;spacingLeft=4;spacingRight=4;overflow=hidden;rotatable=0;points=[[0,0.5],[1,0.5]];portConstraint=eastwest;whiteSpace=wrap;html=1;fontStyle=1" vertex="1" parent="aL73Mdj266lsGvpXiwKX-37">
          <mxGeometry y="78" width="160" height="42" as="geometry" />
        </mxCell>
        <mxCell id="aL73Mdj266lsGvpXiwKX-43" value="爬虫模块流程图" style="swimlane;whiteSpace=wrap;html=1;fillColor=#fff2cc;strokeColor=#d6b656;fontStyle=1" vertex="1" parent="WIyWlLk6GJQsqaUBKTNV-1">
          <mxGeometry x="170" y="700" width="600" height="410" as="geometry">
            <mxRectangle x="450" y="790" width="140" height="30" as="alternateBounds" />
          </mxGeometry>
        </mxCell>
        <mxCell id="aL73Mdj266lsGvpXiwKX-50" style="edgeStyle=orthogonalEdgeStyle;rounded=0;orthogonalLoop=1;jettySize=auto;html=1;exitX=1;exitY=0.5;exitDx=0;exitDy=0;entryX=0;entryY=0.5;entryDx=0;entryDy=0;fontStyle=1" edge="1" parent="aL73Mdj266lsGvpXiwKX-43" source="aL73Mdj266lsGvpXiwKX-44" target="aL73Mdj266lsGvpXiwKX-45">
          <mxGeometry relative="1" as="geometry" />
        </mxCell>
        <mxCell id="aL73Mdj266lsGvpXiwKX-56" value="传输地点&lt;br&gt;id列表" style="edgeLabel;html=1;align=center;verticalAlign=middle;resizable=0;points=[];fontStyle=1" vertex="1" connectable="0" parent="aL73Mdj266lsGvpXiwKX-50">
          <mxGeometry x="-0.2" relative="1" as="geometry">
            <mxPoint as="offset" />
          </mxGeometry>
        </mxCell>
        <mxCell id="aL73Mdj266lsGvpXiwKX-52" style="edgeStyle=orthogonalEdgeStyle;rounded=0;orthogonalLoop=1;jettySize=auto;html=1;exitX=0.5;exitY=1;exitDx=0;exitDy=0;entryX=0.5;entryY=0;entryDx=0;entryDy=0;fontStyle=1" edge="1" parent="aL73Mdj266lsGvpXiwKX-43" source="aL73Mdj266lsGvpXiwKX-44" target="aL73Mdj266lsGvpXiwKX-49">
          <mxGeometry relative="1" as="geometry" />
        </mxCell>
        <mxCell id="aL73Mdj266lsGvpXiwKX-44" value="GetPlaceList" style="rounded=1;whiteSpace=wrap;html=1;fillColor=#dae8fc;strokeColor=none;fontStyle=1" vertex="1" parent="aL73Mdj266lsGvpXiwKX-43">
          <mxGeometry x="30" y="50" width="120" height="60" as="geometry" />
        </mxCell>
        <mxCell id="aL73Mdj266lsGvpXiwKX-53" style="edgeStyle=orthogonalEdgeStyle;rounded=0;orthogonalLoop=1;jettySize=auto;html=1;exitX=0.5;exitY=1;exitDx=0;exitDy=0;entryX=0.5;entryY=0;entryDx=0;entryDy=0;fontStyle=1" edge="1" parent="aL73Mdj266lsGvpXiwKX-43" source="aL73Mdj266lsGvpXiwKX-45" target="aL73Mdj266lsGvpXiwKX-49">
          <mxGeometry relative="1" as="geometry" />
        </mxCell>
        <mxCell id="aL73Mdj266lsGvpXiwKX-63" style="edgeStyle=orthogonalEdgeStyle;rounded=0;orthogonalLoop=1;jettySize=auto;html=1;exitX=1;exitY=0.5;exitDx=0;exitDy=0;entryX=0;entryY=0.5;entryDx=0;entryDy=0;fontStyle=1" edge="1" parent="aL73Mdj266lsGvpXiwKX-43" source="aL73Mdj266lsGvpXiwKX-45" target="aL73Mdj266lsGvpXiwKX-46">
          <mxGeometry relative="1" as="geometry" />
        </mxCell>
        <mxCell id="aL73Mdj266lsGvpXiwKX-64" value="传输楼层&lt;br&gt;id列表" style="edgeLabel;html=1;align=center;verticalAlign=middle;resizable=0;points=[];fontStyle=1" vertex="1" connectable="0" parent="aL73Mdj266lsGvpXiwKX-63">
          <mxGeometry x="-0.075" relative="1" as="geometry">
            <mxPoint as="offset" />
          </mxGeometry>
        </mxCell>
        <mxCell id="aL73Mdj266lsGvpXiwKX-45" value="GetPlaceDetail" style="rounded=1;whiteSpace=wrap;html=1;fontStyle=1;fillColor=#d5e8d4;strokeColor=none;" vertex="1" parent="aL73Mdj266lsGvpXiwKX-43">
          <mxGeometry x="230" y="50" width="120" height="60" as="geometry" />
        </mxCell>
        <mxCell id="aL73Mdj266lsGvpXiwKX-55" style="edgeStyle=orthogonalEdgeStyle;rounded=0;orthogonalLoop=1;jettySize=auto;html=1;exitX=0.5;exitY=1;exitDx=0;exitDy=0;entryX=0.5;entryY=0;entryDx=0;entryDy=0;fontStyle=1" edge="1" parent="aL73Mdj266lsGvpXiwKX-43" source="aL73Mdj266lsGvpXiwKX-46" target="aL73Mdj266lsGvpXiwKX-49">
          <mxGeometry relative="1" as="geometry" />
        </mxCell>
        <mxCell id="aL73Mdj266lsGvpXiwKX-66" value="传输 url 与&lt;br&gt;header" style="edgeLabel;html=1;align=center;verticalAlign=middle;resizable=0;points=[];fontStyle=1" vertex="1" connectable="0" parent="aL73Mdj266lsGvpXiwKX-55">
          <mxGeometry x="0.7875" y="1" relative="1" as="geometry">
            <mxPoint as="offset" />
          </mxGeometry>
        </mxCell>
        <mxCell id="aL73Mdj266lsGvpXiwKX-46" value="GetFloorDetail" style="rounded=1;whiteSpace=wrap;html=1;fontStyle=1;fillColor=#ffe6cc;strokeColor=none;" vertex="1" parent="aL73Mdj266lsGvpXiwKX-43">
          <mxGeometry x="430" y="50" width="120" height="60" as="geometry" />
        </mxCell>
        <mxCell id="aL73Mdj266lsGvpXiwKX-69" style="edgeStyle=orthogonalEdgeStyle;rounded=0;orthogonalLoop=1;jettySize=auto;html=1;exitX=0.5;exitY=0;exitDx=0;exitDy=0;entryX=0.5;entryY=0;entryDx=0;entryDy=0;fontStyle=1" edge="1" parent="aL73Mdj266lsGvpXiwKX-43" source="aL73Mdj266lsGvpXiwKX-48" target="aL73Mdj266lsGvpXiwKX-49">
          <mxGeometry relative="1" as="geometry" />
        </mxCell>
        <mxCell id="aL73Mdj266lsGvpXiwKX-70" value="传输 token" style="edgeLabel;html=1;align=center;verticalAlign=middle;resizable=0;points=[];fontStyle=1" vertex="1" connectable="0" parent="aL73Mdj266lsGvpXiwKX-69">
          <mxGeometry x="-0.0818" y="-1" relative="1" as="geometry">
            <mxPoint as="offset" />
          </mxGeometry>
        </mxCell>
        <mxCell id="aL73Mdj266lsGvpXiwKX-48" value="GetToken" style="rounded=1;whiteSpace=wrap;html=1;fontStyle=1;fillColor=#f8cecc;strokeColor=none;" vertex="1" parent="aL73Mdj266lsGvpXiwKX-43">
          <mxGeometry x="420" y="240" width="120" height="60" as="geometry" />
        </mxCell>
        <mxCell id="aL73Mdj266lsGvpXiwKX-67" style="edgeStyle=orthogonalEdgeStyle;rounded=0;orthogonalLoop=1;jettySize=auto;html=1;exitX=1;exitY=0.5;exitDx=0;exitDy=0;entryX=0;entryY=0.5;entryDx=0;entryDy=0;fontStyle=1" edge="1" parent="aL73Mdj266lsGvpXiwKX-43" source="aL73Mdj266lsGvpXiwKX-49" target="aL73Mdj266lsGvpXiwKX-48">
          <mxGeometry relative="1" as="geometry" />
        </mxCell>
        <mxCell id="aL73Mdj266lsGvpXiwKX-68" value="否" style="edgeLabel;html=1;align=center;verticalAlign=middle;resizable=0;points=[];fontStyle=1" vertex="1" connectable="0" parent="aL73Mdj266lsGvpXiwKX-67">
          <mxGeometry x="-0.0857" y="3" relative="1" as="geometry">
            <mxPoint as="offset" />
          </mxGeometry>
        </mxCell>
        <mxCell id="aL73Mdj266lsGvpXiwKX-73" style="edgeStyle=orthogonalEdgeStyle;rounded=0;orthogonalLoop=1;jettySize=auto;html=1;exitX=0.5;exitY=1;exitDx=0;exitDy=0;entryX=0.5;entryY=0;entryDx=0;entryDy=0;fontStyle=1" edge="1" parent="aL73Mdj266lsGvpXiwKX-43" source="aL73Mdj266lsGvpXiwKX-49" target="aL73Mdj266lsGvpXiwKX-72">
          <mxGeometry relative="1" as="geometry" />
        </mxCell>
        <mxCell id="aL73Mdj266lsGvpXiwKX-74" value="是" style="edgeLabel;html=1;align=center;verticalAlign=middle;resizable=0;points=[];fontStyle=1" vertex="1" connectable="0" parent="aL73Mdj266lsGvpXiwKX-73">
          <mxGeometry x="-0.2" y="1" relative="1" as="geometry">
            <mxPoint as="offset" />
          </mxGeometry>
        </mxCell>
        <mxCell id="aL73Mdj266lsGvpXiwKX-49" value="token是否有效" style="rhombus;whiteSpace=wrap;html=1;fontStyle=1;fillColor=#fff2cc;strokeColor=none;" vertex="1" parent="aL73Mdj266lsGvpXiwKX-43">
          <mxGeometry x="230" y="230" width="120" height="80" as="geometry" />
        </mxCell>
        <mxCell id="aL73Mdj266lsGvpXiwKX-75" style="edgeStyle=orthogonalEdgeStyle;rounded=0;orthogonalLoop=1;jettySize=auto;html=1;exitX=0;exitY=0.5;exitDx=0;exitDy=0;entryX=0.354;entryY=1.033;entryDx=0;entryDy=0;entryPerimeter=0;fontStyle=1" edge="1" parent="aL73Mdj266lsGvpXiwKX-43" source="aL73Mdj266lsGvpXiwKX-72" target="aL73Mdj266lsGvpXiwKX-44">
          <mxGeometry relative="1" as="geometry" />
        </mxCell>
        <mxCell id="aL73Mdj266lsGvpXiwKX-80" value="传输地点信息" style="edgeLabel;html=1;align=center;verticalAlign=middle;resizable=0;points=[];fontStyle=1" vertex="1" connectable="0" parent="aL73Mdj266lsGvpXiwKX-75">
          <mxGeometry x="-0.5764" relative="1" as="geometry">
            <mxPoint as="offset" />
          </mxGeometry>
        </mxCell>
        <mxCell id="aL73Mdj266lsGvpXiwKX-76" style="edgeStyle=orthogonalEdgeStyle;rounded=0;orthogonalLoop=1;jettySize=auto;html=1;exitX=0;exitY=0.5;exitDx=0;exitDy=0;entryX=0.25;entryY=1;entryDx=0;entryDy=0;fontStyle=1" edge="1" parent="aL73Mdj266lsGvpXiwKX-43" source="aL73Mdj266lsGvpXiwKX-72" target="aL73Mdj266lsGvpXiwKX-45">
          <mxGeometry relative="1" as="geometry" />
        </mxCell>
        <mxCell id="aL73Mdj266lsGvpXiwKX-79" value="传输楼层信息" style="edgeLabel;html=1;align=center;verticalAlign=middle;resizable=0;points=[];fontStyle=1" vertex="1" connectable="0" parent="aL73Mdj266lsGvpXiwKX-76">
          <mxGeometry x="-0.4061" y="1" relative="1" as="geometry">
            <mxPoint as="offset" />
          </mxGeometry>
        </mxCell>
        <mxCell id="aL73Mdj266lsGvpXiwKX-77" style="edgeStyle=orthogonalEdgeStyle;rounded=0;orthogonalLoop=1;jettySize=auto;html=1;exitX=1;exitY=0.5;exitDx=0;exitDy=0;entryX=1;entryY=0.5;entryDx=0;entryDy=0;fontStyle=1" edge="1" parent="aL73Mdj266lsGvpXiwKX-43" source="aL73Mdj266lsGvpXiwKX-72" target="aL73Mdj266lsGvpXiwKX-46">
          <mxGeometry relative="1" as="geometry" />
        </mxCell>
        <mxCell id="aL73Mdj266lsGvpXiwKX-78" value="传输机器信息" style="edgeLabel;html=1;align=center;verticalAlign=middle;resizable=0;points=[];fontStyle=1" vertex="1" connectable="0" parent="aL73Mdj266lsGvpXiwKX-77">
          <mxGeometry x="-0.6491" relative="1" as="geometry">
            <mxPoint as="offset" />
          </mxGeometry>
        </mxCell>
        <mxCell id="aL73Mdj266lsGvpXiwKX-72" value="GetJson" style="rounded=1;whiteSpace=wrap;html=1;fontStyle=1;fillColor=#e1d5e7;strokeColor=none;" vertex="1" parent="aL73Mdj266lsGvpXiwKX-43">
          <mxGeometry x="230" y="340" width="120" height="60" as="geometry" />
        </mxCell>
      </root>
    </mxGraphModel>
  </diagram>
</mxfile>
